<svg xmlns="http://www.w3.org/2000/svg" display="none">
    <defs>
        <svg width="16" height="20" viewBox="0 0 16 20" fill="none" id="icon-location">
            <path d="M8 19C8 19 1 13.6 1 8.2C1 3.7 4.5 1 8 1C11.5 1 15 3.7 15 8.2C15 13.6 8 19 8 19ZM8 10.9C9.44987 10.9 10.625 9.6913 10.625 8.2C10.625 6.7087 9.44987 5.5 8 5.5C6.55013 5.5 5.375 6.7087 5.375 8.2C5.375 9.6913 6.55013 10.9 8 10.9Z" stroke="white"/>
        </svg>
        <svg width="16" height="20" viewBox="0 0 16 20" fill="none" id="icon-phone">
            <path d="M15.6101 3.14136L13.53 1.06323C13.2761 0.809326 12.9363 0.666748 12.5769 0.666748C12.2175 0.666748 11.8777 0.807373 11.6238 1.06323L9.38354 3.29956C9.12964 3.55347 8.98706 3.89526 8.98706 4.25464C8.98706 4.61597 9.12769 4.95386 9.38354 5.20972L11.1335 6.96167C10.7349 7.89055 10.1621 8.73452 9.44604 9.448C8.72925 10.1687 7.89136 10.7371 6.96167 11.1394L5.21167 9.38745C4.95776 9.13354 4.61792 8.99097 4.25854 8.99097C4.08129 8.99031 3.90568 9.02504 3.74201 9.09312C3.57835 9.16121 3.42992 9.26127 3.30542 9.38745L1.06323 11.6238C0.809326 11.8777 0.666748 12.2195 0.666748 12.5789C0.666748 12.9402 0.807373 13.2781 1.06323 13.5339L3.14136 15.6121C3.57495 16.0457 4.17261 16.2937 4.78589 16.2937C4.91284 16.2937 5.03589 16.2839 5.16089 16.2625C7.74683 15.8367 10.3132 14.4597 12.3855 12.3894C14.4558 10.3152 15.8308 7.74878 16.2605 5.16089C16.3835 4.42651 16.1375 3.67065 15.6101 3.14136ZM14.8757 4.92847C14.4949 7.2312 13.2566 9.52808 11.3914 11.3933C9.52612 13.2585 7.2312 14.4968 4.92847 14.8777C4.6394 14.9265 4.34253 14.8289 4.13159 14.6199L2.09058 12.5789L4.25464 10.4128L6.59448 12.7566L6.61206 12.7742L7.03394 12.6179C8.31309 12.1476 9.47469 11.4048 10.4382 10.4409C11.4017 9.47706 12.1442 8.31521 12.614 7.03589L12.7703 6.61401L10.4109 4.25659L12.575 2.09058L14.616 4.13159C14.8269 4.34253 14.9246 4.6394 14.8757 4.92847Z" fill="white"/>
        </svg>
        <svg width="15" height="13" viewBox="0 0 15 13" fill="none" id="icon-email">
            <path d="M14.4062 0.65625H0.59375C0.299902 0.65625 0.0625 0.893652 0.0625 1.1875V11.8125C0.0625 12.1063 0.299902 12.3438 0.59375 12.3438H14.4062C14.7001 12.3438 14.9375 12.1063 14.9375 11.8125V1.1875C14.9375 0.893652 14.7001 0.65625 14.4062 0.65625ZM13.7422 2.4957V11.1484H1.25781V2.4957L0.799609 2.13877L1.45205 1.30039L2.1626 1.85322H12.8391L13.5496 1.30039L14.2021 2.13877L13.7422 2.4957ZM12.8391 1.85156L7.5 6.00195L2.16094 1.85156L1.45039 1.29873L0.797949 2.13711L1.25615 2.49404L6.92725 6.90342C7.09034 7.03012 7.29098 7.0989 7.49751 7.0989C7.70404 7.0989 7.90468 7.03012 8.06777 6.90342L13.7422 2.4957L14.2004 2.13877L13.5479 1.30039L12.8391 1.85156Z" fill="white"/>
        </svg>
        <svg width="26" height="18" viewBox="0 0 26 18" fill="none" id="icon-email-filled">
            <path d="M26 0H0V17.6236H26V0ZM23.4 4.40591L13 9.9133L2.6 4.40591V2.20295L13 7.71034L23.4 2.20295V4.40591Z" fill="white"/>
        </svg>
        <svg width="19" height="24" viewBox="0 0 19 24" fill="none" id="icon-location-filled">
            <path d="M9.5 0C6.98136 0.00294898 4.56672 0.997261 2.78577 2.76482C1.00482 4.53238 0.00298142 6.92886 1.0107e-05 9.42857C-0.00300648 11.4713 0.669311 13.4587 1.91383 15.0857C1.91383 15.0857 2.17292 15.4243 2.21523 15.4731L9.5 24L16.7882 15.4689C16.8262 15.4234 17.0862 15.0857 17.0862 15.0857L17.087 15.0831C18.3309 13.4568 19.0029 11.4704 19 9.42857C18.997 6.92886 17.9952 4.53238 16.2142 2.76482C14.4333 0.997261 12.0186 0.00294898 9.5 0ZM9.5 12.8571C8.81676 12.8571 8.14886 12.6561 7.58076 12.2793C7.01266 11.9026 6.56989 11.3671 6.30842 10.7406C6.04695 10.1141 5.97854 9.42477 6.11184 8.75969C6.24513 8.09461 6.57414 7.4837 7.05727 7.00421C7.5404 6.52471 8.15594 6.19817 8.82605 6.06588C9.49617 5.93359 10.1908 6.00148 10.822 6.26098C11.4532 6.52048 11.9928 6.95993 12.3723 7.52376C12.7519 8.08759 12.9545 8.75046 12.9545 9.42857C12.9534 10.3375 12.5891 11.2089 11.9415 11.8517C11.2939 12.4944 10.4159 12.856 9.5 12.8571Z" fill="white"/>
        </svg>
        <svg width="23" height="23" viewBox="0 0 23 23" fill="none" id="icon-phone-filled">
            <path d="M12.912 6.2161C15.6273 6.2161 16.7855 7.37419 16.7855 10.0893H19.3678C19.3678 5.92561 17.076 3.63396 12.912 3.63396V6.2161ZM17.3303 13.2434C17.0822 13.0179 16.7562 12.8977 16.4211 12.908C16.086 12.9184 15.768 13.0585 15.5343 13.2989L12.4446 16.4762C11.7009 16.3342 10.2057 15.8681 8.66664 14.3331C7.12758 12.7928 6.66147 11.2939 6.52332 10.5554L9.69828 7.46456C9.93897 7.23105 10.0794 6.91305 10.0897 6.57787C10.1001 6.24269 9.97961 5.91663 9.7538 5.66869L4.98296 0.423073C4.75706 0.174357 4.4431 0.0234927 4.10775 0.00251989C3.7724 -0.018453 3.44208 0.0921183 3.18695 0.31075L0.385131 2.71343C0.161903 2.93745 0.0286657 3.2356 0.0106933 3.55133C-0.00867409 3.8741 -0.377946 11.5198 5.55107 17.451C10.7235 22.6217 17.2025 23 18.9869 23C19.2477 23 19.4078 22.9923 19.4504 22.9897C19.7661 22.972 20.0642 22.8382 20.2871 22.614L22.6887 19.8111C22.9075 19.5561 23.0183 19.2259 22.9975 18.8906C22.9768 18.5553 22.8262 18.2412 22.5776 18.0152L17.3303 13.2434Z" fill="white"/>
        </svg>
        <svg width="10" height="10" viewBox="0 0 10 10" fill="none" id="icon-linkedin">
            <path d="M1.39866 2.48604C1.99927 2.48604 2.48616 1.99914 2.48616 1.39854C2.48616 0.797925 1.99927 0.311035 1.39866 0.311035C0.798048 0.311035 0.311157 0.797925 0.311157 1.39854C0.311157 1.99914 0.798048 2.48604 1.39866 2.48604Z" fill="white"/>
            <path d="M2.30503 3.21118H0.492529C0.392479 3.21118 0.311279 3.29238 0.311279 3.39243V8.82993C0.311279 8.92998 0.392479 9.01118 0.492529 9.01118H2.30503C2.40508 9.01118 2.48628 8.92998 2.48628 8.82993V3.39243C2.48628 3.29238 2.40508 3.21118 2.30503 3.21118Z" fill="white"/>
            <path d="M7.70509 2.96139C6.93043 2.69604 5.96147 2.92913 5.38038 3.34709C5.36044 3.26915 5.28939 3.21115 5.20493 3.21115H3.39243C3.29238 3.21115 3.21118 3.29235 3.21118 3.3924V8.8299C3.21118 8.92995 3.29238 9.01115 3.39243 9.01115H5.20493C5.30498 9.01115 5.38618 8.92995 5.38618 8.8299V4.92215C5.67908 4.66985 6.05644 4.58938 6.36529 4.7206C6.66472 4.84712 6.83618 5.15597 6.83618 5.5674V8.8299C6.83618 8.92995 6.91738 9.01115 7.01743 9.01115H8.82993C8.92998 9.01115 9.01118 8.92995 9.01118 8.8299V5.20237C8.99052 3.71285 8.28981 3.16149 7.70509 2.96139Z" fill="white"/>
        </svg>
        <svg width="7" height="10" viewBox="0 0 7 10" fill="none" id="icon-facebook">
            <path d="M2.45044 9.94225L2.43725 5.88422H0.71106V4.14506H2.43725V2.98562C2.43725 1.42085 3.39903 0.666748 4.78451 0.666748C5.44817 0.666748 6.01855 0.716528 6.18477 0.738778V2.37406L5.22387 2.3745C4.47037 2.3745 4.32448 2.73524 4.32448 3.26461V4.14506H6.46503L5.88963 5.88422H4.32447V9.94225H2.45044Z" fill="white"/>
        </svg>
        <svg width="15" height="14" viewBox="0 0 15 14" fill="none" id="icon-instagram">
            <path d="M10.926 4.27191C11.3855 4.27191 11.758 3.89941 11.758 3.43991C11.758 2.98041 11.3855 2.60791 10.926 2.60791C10.4665 2.60791 10.094 2.98041 10.094 3.43991C10.094 3.89941 10.4665 4.27191 10.926 4.27191Z" fill="white"/>
            <path fill-rule="evenodd" clip-rule="evenodd" d="M3.86694 6.99987C3.86694 8.91174 5.42174 10.4665 7.33361 10.4665C9.24548 10.4665 10.8003 8.91174 10.8003 6.99987C10.8003 5.088 9.24548 3.5332 7.33361 3.5332C5.42174 3.5332 3.86694 5.088 3.86694 6.99987ZM5.60008 7.00017C5.60008 6.04424 6.37748 5.26684 7.33341 5.26684C8.28935 5.26684 9.06675 6.04424 9.06675 7.00017C9.06675 7.9561 8.28935 8.7335 7.33341 8.7335C6.37748 8.7335 5.60008 7.9561 5.60008 7.00017Z" fill="white"/>
            <path fill-rule="evenodd" clip-rule="evenodd" d="M3.86669 13.9333H10.8C12.5819 13.9333 14.2667 12.2485 14.2667 10.4667V3.53332C14.2667 1.75145 12.5819 0.0666504 10.8 0.0666504H3.86669C2.08482 0.0666504 0.400024 1.75145 0.400024 3.53332V10.4667C0.400024 12.2485 2.08482 13.9333 3.86669 13.9333ZM2.13355 3.53344C2.13355 2.72311 3.05655 1.80011 3.86689 1.80011H10.8002C11.6106 1.80011 12.5336 2.72311 12.5336 3.53344V10.4668C12.5336 11.2771 11.6106 12.2001 10.8002 12.2001H3.86689C3.04095 12.2001 2.13355 11.2927 2.13355 10.4668V3.53344Z" fill="white"/>
        </svg>

        <svg width="11" height="9" viewBox="0 0 11 9" fill="none" id="icon-youtube">
            <path fill-rule="evenodd" clip-rule="evenodd" d="M9.19371 1.17666C9.63523 1.29352 9.98298 1.63603 10.1015 2.0701C10.3215 2.86236 10.3112 4.51418 10.3112 4.51418C10.3112 4.51418 10.3096 6.15688 10.0963 6.94864C9.97628 7.38221 9.62698 7.72421 9.18598 7.84057C8.37919 8.04799 5.15152 8.04445 5.15152 8.04445C5.15152 8.04445 1.93261 8.04091 1.11757 7.82337C0.675539 7.7065 0.327785 7.364 0.209291 6.93043C-0.00193719 6.14626 0.000122824 4.49495 0.000122824 4.49495C0.000122824 4.49495 0.00218435 2.85174 0.214958 2.05948C0.334483 1.62591 0.692025 1.27581 1.12479 1.15996C1.93209 0.952029 5.15925 0.95557 5.15925 0.95557C5.15925 0.95557 8.38692 0.959112 9.19371 1.17666ZM4.12928 2.98172L4.12671 6.01721L6.81188 4.50199L4.12928 2.98172Z" fill="white"/>
        </svg>

        <svg width="90" height="90" viewBox="0 0 90 90" fill="none" id="icon-goals">
            <path d="M39.7374 4.25743L38.0179 9.99212C40.3017 9.52595 42.6626 9.28337 45.0826 9.28337C46.9239 9.28337 48.7329 9.42751 50.4984 9.70103L48.8452 4.25708H39.7374V4.25743ZM45.0822 12.8431C27.5697 12.8431 13.4082 26.9988 13.4082 44.5112C13.4082 62.0232 27.5697 76.179 45.0822 76.179C62.5943 76.179 76.7501 62.0234 76.7501 44.511C76.7501 26.9984 62.5944 12.8428 45.0821 12.8428L45.0822 12.8431ZM45.0822 20.1709C58.5263 20.1709 69.4221 31.0667 69.4221 44.5113C69.4221 57.9554 58.5263 68.857 45.0821 68.857C31.6374 68.857 20.7363 57.9554 20.7363 44.5113C20.7363 31.0667 31.6374 20.1709 45.0821 20.1709H45.0822ZM45.0764 27.0155C35.4155 27.0155 27.5809 34.8448 27.5809 44.5057C27.5809 54.1666 35.4155 61.9959 45.0764 61.9959C54.7374 61.9959 62.5667 54.1666 62.5667 44.5057C62.5667 34.8448 54.7374 27.0155 45.0764 27.0155ZM45.0821 33.9917C50.892 33.9917 55.6012 38.7009 55.6012 44.5112C55.6012 50.3211 50.892 55.0304 45.0819 55.0304C39.2714 55.0304 34.5622 50.3213 34.5622 44.511C34.5622 38.7005 39.2714 33.9914 45.0817 33.9914L45.0821 33.9917ZM45.0821 39.4244C42.2708 39.4244 39.9897 41.7002 39.9897 44.5115C39.9897 47.3223 42.2708 49.6035 45.0821 49.6035C47.8928 49.6035 50.1685 47.3224 50.1685 44.5112C50.1685 41.7004 47.893 39.4246 45.0819 39.4246L45.0821 39.4244ZM20.1979 69.4336L15.3035 85.7593H23.5434L27.1082 74.8058C24.5858 73.3047 22.2637 71.4953 20.1979 69.4336ZM68.9224 70.4334C66.8162 72.3716 64.4709 74.0537 61.9403 75.4376L65.3241 85.7595H73.5695L68.9226 70.4334H68.9224ZM39.9132 79.3596V85.7593H49.07V79.5138C47.7604 79.6614 46.4306 79.7388 45.0821 79.7388C43.326 79.7388 41.5998 79.6087 39.9127 79.3598L39.9132 79.3596Z" fill="#88d707"/>
        </svg>
        <svg width="90" height="90" viewBox="0 0 90 90" fill="none" id="icon-values">
            <path d="M66.6057 10H45.8344L59.0513 27.5406L66.6057 10ZM22.5513 10L30.1057 27.5406L43.3226 10H22.5513ZM44.5785 16.6672L34.5312 30H54.6258L44.5785 16.6672ZM70.7878 12.9781L63.458 30H81L70.7878 12.9781ZM18.3691 12.9781L8 30H25.699L18.3691 12.9781ZM27.4164 35H8.15699L43.1342 80H43.2174L27.4164 35ZM61.7406 35L45.9396 80H46.0228L81 35H61.7406ZM56.0999 35H33.0571L44.5785 67.5L56.0999 35Z" fill="#88d707"/>
        </svg>
        <svg width="90" height="90" viewBox="0 0 90 90" fill="none" id="icon-mission">
            <g clip-path="url(#clip0_409_1734)">
                <path d="M65.0898 52.0543C76.4806 39.2563 81.2749 28.9271 83.0672 21.353C84.1041 16.9734 84.1238 13.5517 83.8572 11.157C83.7536 10.2177 83.5753 9.28816 83.3239 8.3772C83.2187 7.99121 83.0901 7.61197 82.9388 7.24157C82.5784 6.43182 82.1093 6.08126 81.2008 5.78007C80.9407 5.6951 80.6771 5.62097 80.4108 5.55789C79.485 5.33721 78.5444 5.18375 77.5965 5.0987C75.1771 4.88145 71.7208 4.95057 67.3264 6.02695C59.7424 7.87357 49.4626 12.658 36.9065 23.8217L25.0565 24.9968H25.0269C22.1793 25.3135 19.525 26.5919 17.5021 28.6209L5.74101 40.4018C5.3685 40.777 5.12297 41.2594 5.03896 41.7814C4.95495 42.3033 5.03669 42.8385 5.27268 43.3116C5.50868 43.7846 5.88704 44.1718 6.35455 44.4187C6.82207 44.6655 7.3552 44.7595 7.87895 44.6876L17.2404 43.3495C18.6229 43.152 20.1634 43.4137 21.9558 44.0013C23.1013 44.3765 24.1134 44.7913 25.1898 45.2258L26.1921 45.6356C27.1599 49.6646 29.4509 53.4368 32.4874 56.4734C35.5141 59.505 39.2814 61.8059 43.3055 62.7786L43.7104 63.776C44.1498 64.8523 44.5646 65.8694 44.9398 67.0199C45.5224 68.8122 45.7891 70.3576 45.5916 71.7401L44.2535 81.1214C44.1829 81.6441 44.2776 82.1759 44.5243 82.6421C44.771 83.1084 45.1573 83.4858 45.6292 83.7215C46.1012 83.9572 46.635 84.0393 47.1559 83.9565C47.6769 83.8736 48.1588 83.6298 48.5343 83.2593L60.2954 71.4784C62.3198 69.4541 63.5937 66.7928 63.9097 63.9438L65.0898 52.0543ZM65.6329 33.7905C61.6977 37.7405 56.1035 38.5354 53.1509 35.5779C50.1983 32.6154 50.9981 27.0212 54.9333 23.0761C58.8734 19.1311 64.4627 18.3361 67.4153 21.2937C70.3679 24.2513 69.573 29.8454 65.6378 33.7905H65.6329Z" fill="#88d707"/>
                <path d="M30.6996 58.2608C33.3203 60.9164 36.3224 63.1663 39.6068 64.9363C34.0867 69.9083 15.2699 74.9495 14.6527 74.3323C14.0306 73.7053 18.2917 53.6492 23.7328 48.7561C25.4412 52.163 27.8655 55.4217 30.6996 58.2608Z" fill="#88d707"/>
            </g>
            <defs>
                <clipPath id="clip0_409_1734">
                    <rect width="79" height="79" fill="white" transform="translate(5 5)"/>
                </clipPath>
            </defs>
        </svg>
        <svg width="90" height="90" viewBox="0 0 90 90" fill="none" id="icon-vision">
            <g clip-path="url(#clip0_409_1744)">
                <path d="M36.2363 63.75H53.76M45 11.25V15M68.865 21.135L66.2137 23.7862M78.75 45H75M15 45H11.25M23.7862 23.7862L21.135 21.135M31.74 58.26C29.1183 55.6376 27.333 52.2966 26.6099 48.6596C25.8868 45.0226 26.2584 41.2529 27.6777 37.827C29.097 34.4012 31.5003 31.4732 34.5836 29.4131C37.6669 27.353 41.2918 26.2535 45 26.2535C48.7082 26.2535 52.3331 27.353 55.4164 29.4131C58.4997 31.4732 60.903 34.4012 62.3223 37.827C63.7416 41.2529 64.1132 45.0226 63.3901 48.6596C62.667 52.2966 60.8817 55.6376 58.26 58.26L56.205 60.3113C55.0302 61.4863 54.0983 62.8813 53.4626 64.4165C52.8269 65.9517 52.4998 67.5971 52.5 69.2587V71.25C52.5 73.2391 51.7098 75.1468 50.3033 76.5533C48.8968 77.9598 46.9891 78.75 45 78.75C43.0109 78.75 41.1032 77.9598 39.6967 76.5533C38.2902 75.1468 37.5 73.2391 37.5 71.25V69.2587C37.5 65.9025 36.165 62.6813 33.795 60.3113L31.74 58.26Z" stroke="#88d707" stroke-width="7.5" stroke-linecap="round" stroke-linejoin="round"/>
            </g>
            <defs>
                <clipPath id="clip0_409_1744">
                    <rect width="90" height="90" fill="white"/>
                </clipPath>
            </defs>
        </svg>
        <svg width="16" height="16" viewBox="0 0 16 16" fill="none" id="icon-first">
            <path d="M11.727 12L12.667 11.06L9.61366 8L12.667 4.94L11.727 4L7.72699 8L11.727 12Z" fill="#333333"/>
            <path d="M7.33344 12L8.27344 11.06L5.2201 8L8.27344 4.94L7.33344 4L3.33344 8L7.33344 12Z" fill="#333333"/>
        </svg>
        <svg width="16" height="16" viewBox="0 0 16 16" fill="none" id="icon-previous">
            <path d="M10.06 12L11 11.06L7.94667 8L11 4.94L10.06 4L6.06 8L10.06 12Z" fill="black"/>
        </svg>
        <svg width="16" height="16" viewBox="0 0 16 16" fill="none" id="icon-next">
            <path d="M6.94 4L6 4.94L9.05333 8L6 11.06L6.94 12L10.94 8L6.94 4Z" fill="black"/>
        </svg>
        <svg width="16" height="16" viewBox="0 0 16 16" fill="none" id="icon-last">
            <path d="M4.27301 4L3.33301 4.94L6.38634 8L3.33301 11.06L4.27301 12L8.27301 8L4.27301 4Z" fill="black"/>
            <path d="M8.66656 4L7.72656 4.94L10.7799 8L7.72656 11.06L8.66656 12L12.6666 8L8.66656 4Z" fill="black"/>
        </svg>
        <svg width="62" height="80" viewBox="0 0 62 80" fill="none" id="icon-love">
            <path fill-rule="evenodd" clip-rule="evenodd" d="M30.615 12.2929L26.9565 8.54947C21.1907 2.65247 10.4092 4.6029 6.49557 12.2065C4.70971 15.6858 4.19436 20.8768 7.69976 27.7592C11.0215 34.3012 17.9608 42.2604 30.615 51.0068C43.264 42.2553 50.2033 34.2961 53.5301 27.7592C57.0355 20.8768 56.5253 15.6858 54.7343 12.2116C50.8207 4.6029 40.0392 2.65247 34.2734 8.54947L30.615 12.2929ZM28.1147 55.4664C-26.8899 17.6769 12.8073 -11.351 29.9465 4.35401C30.1778 4.56396 30.4024 4.78236 30.6201 5.00924C30.8412 4.78236 31.0657 4.56396 31.2936 4.35401C48.4379 -11.351 88.1198 17.6819 33.1152 55.4664L34.3142 57.8435C34.3893 57.9929 34.434 58.1556 34.4459 58.3222C34.4578 58.4888 34.4366 58.6561 34.3836 58.8146C34.3305 58.9731 34.2466 59.1196 34.1367 59.2458C34.0267 59.372 33.8929 59.4754 33.7428 59.5501C33.5927 59.6248 33.4293 59.6694 33.2619 59.6812C33.0945 59.6931 32.9264 59.672 32.7672 59.6191C32.608 59.5663 32.4608 59.4828 32.334 59.3733C32.2073 59.2639 32.1034 59.1307 32.0283 58.9812L31.9875 58.8949C32.0283 59.4536 32.0896 59.9209 32.1763 60.3679C32.4518 61.7393 32.9978 62.8465 34.3142 65.4623C35.7838 68.3982 35.5133 71.3035 34.702 73.7364C33.9009 76.1186 32.5488 78.1401 31.7018 79.3998L31.6814 79.4353C31.5882 79.5741 31.4686 79.6932 31.3292 79.7859C31.1898 79.8786 31.0334 79.9431 30.869 79.9756C30.7046 80.0081 30.5354 80.0081 30.3709 79.9756C30.2065 79.943 30.0502 79.8785 29.9108 79.7858C29.7714 79.6931 29.6518 79.574 29.5587 79.4352C29.4655 79.2965 29.4008 79.1408 29.3681 78.9771C29.3354 78.8135 29.3354 78.645 29.3681 78.4814C29.4008 78.3177 29.4656 78.1621 29.5587 78.0233C30.416 76.7433 31.5997 74.9758 32.2784 72.9288C32.957 70.9175 33.1101 68.7435 32.0283 66.6001L31.962 66.4579C30.7374 64.0198 30.0231 62.6078 29.6761 60.8606C29.5299 60.1064 29.4412 59.3424 29.4108 58.5749L29.2067 58.9812C29.1324 59.1316 29.029 59.2659 28.9024 59.3763C28.7757 59.4868 28.6284 59.5711 28.4688 59.6246C28.3093 59.6781 28.1407 59.6996 27.9727 59.6879C27.8048 59.6762 27.6409 59.6315 27.4903 59.5564C27.3398 59.4813 27.2058 59.3773 27.0958 59.2504C26.9859 59.1235 26.9023 58.9762 26.8498 58.817C26.7973 58.6577 26.777 58.4897 26.7901 58.3227C26.8031 58.1556 26.8493 57.9927 26.9259 57.8435L28.1249 55.4664H28.1147ZM20.4763 10.4643C17.1648 9.55008 12.9094 10.8859 11.0368 14.5176C10.3683 15.828 9.78667 18.0172 10.6286 21.2984C10.95 22.5377 12.741 22.304 13.1135 21.08C14.185 17.5397 16.3127 13.7303 20.0477 12.4859C21.155 12.1151 21.5989 10.7742 20.4763 10.4643Z" fill="#DFA100"/>
        </svg>
        <svg width="25" height="19" viewBox="0 0 25 19" fill="none" id="icon-hamburger">
            <path fill-rule="evenodd" clip-rule="evenodd" d="M1.58333 0.791748C0.84696 0.791748 0.25 1.36739 0.25 2.07746C0.25 2.78754 0.84696 3.36318 1.58333 3.36318H22.9167C23.6531 3.36318 24.25 2.78754 24.25 2.07746C24.25 1.36739 23.6531 0.791748 22.9167 0.791748H1.58333ZM5.58333 9.79175C5.58333 9.08165 6.18029 8.50603 6.91667 8.50603H22.9167C23.6531 8.50603 24.25 9.08165 24.25 9.79175C24.25 10.5018 23.6531 11.0775 22.9167 11.0775H6.91667C6.18029 11.0775 5.58333 10.5018 5.58333 9.79175ZM0.25 17.506C0.25 16.7959 0.846933 16.2203 1.58333 16.2203H22.9167C23.6531 16.2203 24.25 16.7959 24.25 17.506C24.25 18.2161 23.6531 18.7917 22.9167 18.7917H1.58333C0.846933 18.7917 0.25 18.2161 0.25 17.506Z" fill="#ffffff"/>
        </svg>
        <svg width="21" height="21" viewBox="0 0 21 21" fill="none" id="icon-search">
            <path d="M16.6451 14.8549C16.2353 14.4623 15.8365 14.0585 15.449 13.6439C15.1235 13.3131 14.9275 13.0725 14.9275 13.0725L12.4775 11.9026C13.4584 10.7902 13.9997 9.35812 14 7.875C14 4.49837 11.2525 1.75 7.875 1.75C4.4975 1.75 1.75 4.49837 1.75 7.875C1.75 11.2516 4.4975 14 7.875 14C9.41762 14 10.8237 13.4225 11.9026 12.4784L13.0725 14.9284C13.0725 14.9284 13.3131 15.1244 13.6439 15.4499C13.9825 15.7675 14.4279 16.1971 14.8549 16.646L16.0431 17.864L16.5716 18.4293L18.4275 16.5734L17.8622 16.0449C17.5306 15.7194 17.0879 15.2871 16.6451 14.8549ZM7.875 12.25C5.46262 12.25 3.5 10.2874 3.5 7.875C3.5 5.46263 5.46262 3.5 7.875 3.5C10.2874 3.5 12.25 5.46263 12.25 7.875C12.25 10.2874 10.2874 12.25 7.875 12.25Z" fill="white"/>
        </svg>

    </defs>
</svg>
