<svg xmlns="http://www.w3.org/2000/svg" display="none">
    <defs>
        <svg width="14" height="18" viewBox="0 0 14 18" fill="none" id="icon-location">
            <path d="M8 19C8 19 1 13.6 1 8.2C1 3.7 4.5 1 8 1C11.5 1 15 3.7 15 8.2C15 13.6 8 19 8 19ZM8 10.9C9.44987 10.9 10.625 9.6913 10.625 8.2C10.625 6.7087 9.44987 5.5 8 5.5C6.55013 5.5 5.375 6.7087 5.375 8.2C5.375 9.6913 6.55013 10.9 8 10.9Z"
                  stroke="white"/>
        </svg>
        <svg width="16" height="20" viewBox="0 0 16 20" fill="none" id="icon-phone">
            <path d="M15.6101 3.14136L13.53 1.06323C13.2761 0.809326 12.9363 0.666748 12.5769 0.666748C12.2175 0.666748 11.8777 0.807373 11.6238 1.06323L9.38354 3.29956C9.12964 3.55347 8.98706 3.89526 8.98706 4.25464C8.98706 4.61597 9.12769 4.95386 9.38354 5.20972L11.1335 6.96167C10.7349 7.89055 10.1621 8.73452 9.44604 9.448C8.72925 10.1687 7.89136 10.7371 6.96167 11.1394L5.21167 9.38745C4.95776 9.13354 4.61792 8.99097 4.25854 8.99097C4.08129 8.99031 3.90568 9.02504 3.74201 9.09312C3.57835 9.16121 3.42992 9.26127 3.30542 9.38745L1.06323 11.6238C0.809326 11.8777 0.666748 12.2195 0.666748 12.5789C0.666748 12.9402 0.807373 13.2781 1.06323 13.5339L3.14136 15.6121C3.57495 16.0457 4.17261 16.2937 4.78589 16.2937C4.91284 16.2937 5.03589 16.2839 5.16089 16.2625C7.74683 15.8367 10.3132 14.4597 12.3855 12.3894C14.4558 10.3152 15.8308 7.74878 16.2605 5.16089C16.3835 4.42651 16.1375 3.67065 15.6101 3.14136ZM14.8757 4.92847C14.4949 7.2312 13.2566 9.52808 11.3914 11.3933C9.52612 13.2585 7.2312 14.4968 4.92847 14.8777C4.6394 14.9265 4.34253 14.8289 4.13159 14.6199L2.09058 12.5789L4.25464 10.4128L6.59448 12.7566L6.61206 12.7742L7.03394 12.6179C8.31309 12.1476 9.47469 11.4048 10.4382 10.4409C11.4017 9.47706 12.1442 8.31521 12.614 7.03589L12.7703 6.61401L10.4109 4.25659L12.575 2.09058L14.616 4.13159C14.8269 4.34253 14.9246 4.6394 14.8757 4.92847Z" fill="white"/>
        </svg>
        <svg width="15" height="13" viewBox="0 0 15 13" fill="none" id="icon-email">
            <path d="M14.4062 0.65625H0.59375C0.299902 0.65625 0.0625 0.893652 0.0625 1.1875V11.8125C0.0625 12.1063 0.299902 12.3438 0.59375 12.3438H14.4062C14.7001 12.3438 14.9375 12.1063 14.9375 11.8125V1.1875C14.9375 0.893652 14.7001 0.65625 14.4062 0.65625ZM13.7422 2.4957V11.1484H1.25781V2.4957L0.799609 2.13877L1.45205 1.30039L2.1626 1.85322H12.8391L13.5496 1.30039L14.2021 2.13877L13.7422 2.4957ZM12.8391 1.85156L7.5 6.00195L2.16094 1.85156L1.45039 1.29873L0.797949 2.13711L1.25615 2.49404L6.92725 6.90342C7.09034 7.03012 7.29098 7.0989 7.49751 7.0989C7.70404 7.0989 7.90468 7.03012 8.06777 6.90342L13.7422 2.4957L14.2004 2.13877L13.5479 1.30039L12.8391 1.85156Z" fill="white"/>
        </svg>
    </defs>
</svg>
