<svg xmlns="http://www.w3.org/2000/svg" display="none">
    <defs>
        <svg width="16" height="20" viewBox="0 0 16 20" fill="none" id="icon-location">
            <path d="M8 19C8 19 1 13.6 1 8.2C1 3.7 4.5 1 8 1C11.5 1 15 3.7 15 8.2C15 13.6 8 19 8 19ZM8 10.9C9.44987 10.9 10.625 9.6913 10.625 8.2C10.625 6.7087 9.44987 5.5 8 5.5C6.55013 5.5 5.375 6.7087 5.375 8.2C5.375 9.6913 6.55013 10.9 8 10.9Z" stroke="white"/>
        </svg>
        <svg width="16" height="20" viewBox="0 0 16 20" fill="none" id="icon-phone">
            <path d="M15.6101 3.14136L13.53 1.06323C13.2761 0.809326 12.9363 0.666748 12.5769 0.666748C12.2175 0.666748 11.8777 0.807373 11.6238 1.06323L9.38354 3.29956C9.12964 3.55347 8.98706 3.89526 8.98706 4.25464C8.98706 4.61597 9.12769 4.95386 9.38354 5.20972L11.1335 6.96167C10.7349 7.89055 10.1621 8.73452 9.44604 9.448C8.72925 10.1687 7.89136 10.7371 6.96167 11.1394L5.21167 9.38745C4.95776 9.13354 4.61792 8.99097 4.25854 8.99097C4.08129 8.99031 3.90568 9.02504 3.74201 9.09312C3.57835 9.16121 3.42992 9.26127 3.30542 9.38745L1.06323 11.6238C0.809326 11.8777 0.666748 12.2195 0.666748 12.5789C0.666748 12.9402 0.807373 13.2781 1.06323 13.5339L3.14136 15.6121C3.57495 16.0457 4.17261 16.2937 4.78589 16.2937C4.91284 16.2937 5.03589 16.2839 5.16089 16.2625C7.74683 15.8367 10.3132 14.4597 12.3855 12.3894C14.4558 10.3152 15.8308 7.74878 16.2605 5.16089C16.3835 4.42651 16.1375 3.67065 15.6101 3.14136ZM14.8757 4.92847C14.4949 7.2312 13.2566 9.52808 11.3914 11.3933C9.52612 13.2585 7.2312 14.4968 4.92847 14.8777C4.6394 14.9265 4.34253 14.8289 4.13159 14.6199L2.09058 12.5789L4.25464 10.4128L6.59448 12.7566L6.61206 12.7742L7.03394 12.6179C8.31309 12.1476 9.47469 11.4048 10.4382 10.4409C11.4017 9.47706 12.1442 8.31521 12.614 7.03589L12.7703 6.61401L10.4109 4.25659L12.575 2.09058L14.616 4.13159C14.8269 4.34253 14.9246 4.6394 14.8757 4.92847Z" fill="white"/>
        </svg>
        <svg width="15" height="13" viewBox="0 0 15 13" fill="none" id="icon-email">
            <path d="M14.4062 0.65625H0.59375C0.299902 0.65625 0.0625 0.893652 0.0625 1.1875V11.8125C0.0625 12.1063 0.299902 12.3438 0.59375 12.3438H14.4062C14.7001 12.3438 14.9375 12.1063 14.9375 11.8125V1.1875C14.9375 0.893652 14.7001 0.65625 14.4062 0.65625ZM13.7422 2.4957V11.1484H1.25781V2.4957L0.799609 2.13877L1.45205 1.30039L2.1626 1.85322H12.8391L13.5496 1.30039L14.2021 2.13877L13.7422 2.4957ZM12.8391 1.85156L7.5 6.00195L2.16094 1.85156L1.45039 1.29873L0.797949 2.13711L1.25615 2.49404L6.92725 6.90342C7.09034 7.03012 7.29098 7.0989 7.49751 7.0989C7.70404 7.0989 7.90468 7.03012 8.06777 6.90342L13.7422 2.4957L14.2004 2.13877L13.5479 1.30039L12.8391 1.85156Z" fill="white"/>
        </svg>
        <svg width="10" height="10" viewBox="0 0 10 10" fill="none" id="icon-linkedin">
            <path d="M1.39866 2.48604C1.99927 2.48604 2.48616 1.99914 2.48616 1.39854C2.48616 0.797925 1.99927 0.311035 1.39866 0.311035C0.798048 0.311035 0.311157 0.797925 0.311157 1.39854C0.311157 1.99914 0.798048 2.48604 1.39866 2.48604Z" fill="white"/>
            <path d="M2.30503 3.21118H0.492529C0.392479 3.21118 0.311279 3.29238 0.311279 3.39243V8.82993C0.311279 8.92998 0.392479 9.01118 0.492529 9.01118H2.30503C2.40508 9.01118 2.48628 8.92998 2.48628 8.82993V3.39243C2.48628 3.29238 2.40508 3.21118 2.30503 3.21118Z" fill="white"/>
            <path d="M7.70509 2.96139C6.93043 2.69604 5.96147 2.92913 5.38038 3.34709C5.36044 3.26915 5.28939 3.21115 5.20493 3.21115H3.39243C3.29238 3.21115 3.21118 3.29235 3.21118 3.3924V8.8299C3.21118 8.92995 3.29238 9.01115 3.39243 9.01115H5.20493C5.30498 9.01115 5.38618 8.92995 5.38618 8.8299V4.92215C5.67908 4.66985 6.05644 4.58938 6.36529 4.7206C6.66472 4.84712 6.83618 5.15597 6.83618 5.5674V8.8299C6.83618 8.92995 6.91738 9.01115 7.01743 9.01115H8.82993C8.92998 9.01115 9.01118 8.92995 9.01118 8.8299V5.20237C8.99052 3.71285 8.28981 3.16149 7.70509 2.96139Z" fill="white"/>
        </svg>
        <svg width="7" height="10" viewBox="0 0 7 10" fill="none" id="icon-facebook">
            <path d="M2.45044 9.94225L2.43725 5.88422H0.71106V4.14506H2.43725V2.98562C2.43725 1.42085 3.39903 0.666748 4.78451 0.666748C5.44817 0.666748 6.01855 0.716528 6.18477 0.738778V2.37406L5.22387 2.3745C4.47037 2.3745 4.32448 2.73524 4.32448 3.26461V4.14506H6.46503L5.88963 5.88422H4.32447V9.94225H2.45044Z" fill="white"/>
        </svg>
        <svg width="15" height="14" viewBox="0 0 15 14" fill="none" id="icon-instagram">
            <path d="M10.926 4.27191C11.3855 4.27191 11.758 3.89941 11.758 3.43991C11.758 2.98041 11.3855 2.60791 10.926 2.60791C10.4665 2.60791 10.094 2.98041 10.094 3.43991C10.094 3.89941 10.4665 4.27191 10.926 4.27191Z" fill="white"/>
            <path fill-rule="evenodd" clip-rule="evenodd" d="M3.86694 6.99987C3.86694 8.91174 5.42174 10.4665 7.33361 10.4665C9.24548 10.4665 10.8003 8.91174 10.8003 6.99987C10.8003 5.088 9.24548 3.5332 7.33361 3.5332C5.42174 3.5332 3.86694 5.088 3.86694 6.99987ZM5.60008 7.00017C5.60008 6.04424 6.37748 5.26684 7.33341 5.26684C8.28935 5.26684 9.06675 6.04424 9.06675 7.00017C9.06675 7.9561 8.28935 8.7335 7.33341 8.7335C6.37748 8.7335 5.60008 7.9561 5.60008 7.00017Z" fill="white"/>
            <path fill-rule="evenodd" clip-rule="evenodd" d="M3.86669 13.9333H10.8C12.5819 13.9333 14.2667 12.2485 14.2667 10.4667V3.53332C14.2667 1.75145 12.5819 0.0666504 10.8 0.0666504H3.86669C2.08482 0.0666504 0.400024 1.75145 0.400024 3.53332V10.4667C0.400024 12.2485 2.08482 13.9333 3.86669 13.9333ZM2.13355 3.53344C2.13355 2.72311 3.05655 1.80011 3.86689 1.80011H10.8002C11.6106 1.80011 12.5336 2.72311 12.5336 3.53344V10.4668C12.5336 11.2771 11.6106 12.2001 10.8002 12.2001H3.86689C3.04095 12.2001 2.13355 11.2927 2.13355 10.4668V3.53344Z" fill="white"/>
        </svg>

        <svg width="11" height="9" viewBox="0 0 11 9" fill="none" id="icon-youtube">
            <path fill-rule="evenodd" clip-rule="evenodd" d="M9.19371 1.17666C9.63523 1.29352 9.98298 1.63603 10.1015 2.0701C10.3215 2.86236 10.3112 4.51418 10.3112 4.51418C10.3112 4.51418 10.3096 6.15688 10.0963 6.94864C9.97628 7.38221 9.62698 7.72421 9.18598 7.84057C8.37919 8.04799 5.15152 8.04445 5.15152 8.04445C5.15152 8.04445 1.93261 8.04091 1.11757 7.82337C0.675539 7.7065 0.327785 7.364 0.209291 6.93043C-0.00193719 6.14626 0.000122824 4.49495 0.000122824 4.49495C0.000122824 4.49495 0.00218435 2.85174 0.214958 2.05948C0.334483 1.62591 0.692025 1.27581 1.12479 1.15996C1.93209 0.952029 5.15925 0.95557 5.15925 0.95557C5.15925 0.95557 8.38692 0.959112 9.19371 1.17666ZM4.12928 2.98172L4.12671 6.01721L6.81188 4.50199L4.12928 2.98172Z" fill="white"/>
        </svg>
    </defs>
</svg>
