<svg xmlns="http://www.w3.org/2000/svg" display="none">
    <defs>
        <svg width="20" height="20" viewBox="0 0 20 20" fill="none" id="icon-location">
            <path d="M10.0002 18.3334C10.0002 18.3334 3.3335 13.3334 3.3335 8.33335C3.3335 4.16669 6.66683 1.66669 10.0002 1.66669C13.3335 1.66669 16.6668 4.16669 16.6668 8.33335C16.6668 13.3334 10.0002 18.3334 10.0002 18.3334ZM10.0002 10.8334C11.381 10.8334 12.5002 9.71419 12.5002 8.33335C12.5002 6.95252 11.381 5.83335 10.0002 5.83335C8.61933 5.83335 7.50016 6.95252 7.50016 8.33335C7.50016 9.71419 8.61933 10.8334 10.0002 10.8334Z" stroke="white"/>
        </svg>
        <svg width="21" height="21" viewBox="0 0 21 21" fill="none" id="icon-phone">
            <path d="M17.8091 4.93805L15.729 2.85992C15.4751 2.60602 15.1353 2.46344 14.7759 2.46344C14.4165 2.46344 14.0767 2.60406 13.8228 2.85992L11.5825 5.09625C11.3286 5.35016 11.186 5.69196 11.186 6.05133C11.186 6.41266 11.3267 6.75055 11.5825 7.00641L13.3325 8.75836C12.9339 9.68724 12.361 10.5312 11.645 11.2447C10.9282 11.9654 10.0903 12.5338 9.16064 12.9361L7.41064 11.1841C7.15674 10.9302 6.81689 10.7877 6.45752 10.7877C6.28026 10.787 6.10465 10.8217 5.94099 10.8898C5.77732 10.9579 5.62889 11.058 5.50439 11.1841L3.26221 13.4205C3.0083 13.6744 2.86572 14.0162 2.86572 14.3755C2.86572 14.7369 3.00635 15.0748 3.26221 15.3306L5.34033 17.4088C5.77393 17.8423 6.37158 18.0904 6.98486 18.0904C7.11182 18.0904 7.23486 18.0806 7.35986 18.0591C9.9458 17.6334 12.5122 16.2564 14.5845 14.1861C16.6548 12.1119 18.0298 9.54547 18.4595 6.95758C18.5825 6.22321 18.3364 5.46735 17.8091 4.93805ZM17.0747 6.72516C16.6938 9.02789 15.4556 11.3248 13.5903 13.19C11.7251 15.0552 9.43018 16.2935 7.12744 16.6744C6.83838 16.7232 6.5415 16.6255 6.33057 16.4166L4.28955 14.3755L6.45361 12.2095L8.79346 14.5533L8.81104 14.5709L9.23291 14.4146C10.5121 13.9443 11.6737 13.2015 12.6372 12.2376C13.6007 11.2738 14.3431 10.1119 14.813 8.83258L14.9692 8.4107L12.6099 6.05328L14.7739 3.88727L16.8149 5.92828C17.0259 6.13922 17.1235 6.4361 17.0747 6.72516Z" fill="white"/>
        </svg>
        <svg width="21" height="21" viewBox="0 0 21 21" fill="none" id="icon-email">
            <path d="M18.1743 3.23303H1.92432C1.57861 3.23303 1.29932 3.51233 1.29932 3.85803V16.358C1.29932 16.7037 1.57861 16.983 1.92432 16.983H18.1743C18.52 16.983 18.7993 16.7037 18.7993 16.358V3.85803C18.7993 3.51233 18.52 3.23303 18.1743 3.23303ZM17.3931 5.39709V15.5768H2.70557V5.39709L2.1665 4.97717L2.93408 3.99084L3.77002 4.64124H16.3306L17.1665 3.99084L17.9341 4.97717L17.3931 5.39709ZM16.3306 4.63928L10.0493 9.52209L3.76807 4.63928L2.93213 3.98889L2.16455 4.97522L2.70361 5.39514L9.37549 10.5826C9.56736 10.7317 9.80341 10.8126 10.0464 10.8126C10.2894 10.8126 10.5254 10.7317 10.7173 10.5826L17.3931 5.39709L17.9321 4.97717L17.1646 3.99084L16.3306 4.63928Z" fill="white"/>
        </svg>
        <svg width="26" height="18" viewBox="0 0 26 18" fill="none" id="icon-email-filled">
            <path d="M26 0H0V17.6236H26V0ZM23.4 4.40591L13 9.9133L2.6 4.40591V2.20295L13 7.71034L23.4 2.20295V4.40591Z" fill="white"/>
        </svg>
        <svg width="19" height="24" viewBox="0 0 19 24" fill="none" id="icon-location-filled">
            <path d="M9.5 0C6.98136 0.00294898 4.56672 0.997261 2.78577 2.76482C1.00482 4.53238 0.00298142 6.92886 1.0107e-05 9.42857C-0.00300648 11.4713 0.669311 13.4587 1.91383 15.0857C1.91383 15.0857 2.17292 15.4243 2.21523 15.4731L9.5 24L16.7882 15.4689C16.8262 15.4234 17.0862 15.0857 17.0862 15.0857L17.087 15.0831C18.3309 13.4568 19.0029 11.4704 19 9.42857C18.997 6.92886 17.9952 4.53238 16.2142 2.76482C14.4333 0.997261 12.0186 0.00294898 9.5 0ZM9.5 12.8571C8.81676 12.8571 8.14886 12.6561 7.58076 12.2793C7.01266 11.9026 6.56989 11.3671 6.30842 10.7406C6.04695 10.1141 5.97854 9.42477 6.11184 8.75969C6.24513 8.09461 6.57414 7.4837 7.05727 7.00421C7.5404 6.52471 8.15594 6.19817 8.82605 6.06588C9.49617 5.93359 10.1908 6.00148 10.822 6.26098C11.4532 6.52048 11.9928 6.95993 12.3723 7.52376C12.7519 8.08759 12.9545 8.75046 12.9545 9.42857C12.9534 10.3375 12.5891 11.2089 11.9415 11.8517C11.2939 12.4944 10.4159 12.856 9.5 12.8571Z" fill="white"/>
        </svg>
        <svg width="23" height="23" viewBox="0 0 23 23" fill="none" id="icon-phone-filled">
            <path d="M12.912 6.2161C15.6273 6.2161 16.7855 7.37419 16.7855 10.0893H19.3678C19.3678 5.92561 17.076 3.63396 12.912 3.63396V6.2161ZM17.3303 13.2434C17.0822 13.0179 16.7562 12.8977 16.4211 12.908C16.086 12.9184 15.768 13.0585 15.5343 13.2989L12.4446 16.4762C11.7009 16.3342 10.2057 15.8681 8.66664 14.3331C7.12758 12.7928 6.66147 11.2939 6.52332 10.5554L9.69828 7.46456C9.93897 7.23105 10.0794 6.91305 10.0897 6.57787C10.1001 6.24269 9.97961 5.91663 9.7538 5.66869L4.98296 0.423073C4.75706 0.174357 4.4431 0.0234927 4.10775 0.00251989C3.7724 -0.018453 3.44208 0.0921183 3.18695 0.31075L0.385131 2.71343C0.161903 2.93745 0.0286657 3.2356 0.0106933 3.55133C-0.00867409 3.8741 -0.377946 11.5198 5.55107 17.451C10.7235 22.6217 17.2025 23 18.9869 23C19.2477 23 19.4078 22.9923 19.4504 22.9897C19.7661 22.972 20.0642 22.8382 20.2871 22.614L22.6887 19.8111C22.9075 19.5561 23.0183 19.2259 22.9975 18.8906C22.9768 18.5553 22.8262 18.2412 22.5776 18.0152L17.3303 13.2434Z" fill="white"/>
        </svg>
        <svg width="10" height="10" viewBox="0 0 10 10" fill="none" id="icon-linkedin">
            <path d="M1.39866 2.48604C1.99927 2.48604 2.48616 1.99914 2.48616 1.39854C2.48616 0.797925 1.99927 0.311035 1.39866 0.311035C0.798048 0.311035 0.311157 0.797925 0.311157 1.39854C0.311157 1.99914 0.798048 2.48604 1.39866 2.48604Z" fill="white"/>
            <path d="M2.30503 3.21118H0.492529C0.392479 3.21118 0.311279 3.29238 0.311279 3.39243V8.82993C0.311279 8.92998 0.392479 9.01118 0.492529 9.01118H2.30503C2.40508 9.01118 2.48628 8.92998 2.48628 8.82993V3.39243C2.48628 3.29238 2.40508 3.21118 2.30503 3.21118Z" fill="white"/>
            <path d="M7.70509 2.96139C6.93043 2.69604 5.96147 2.92913 5.38038 3.34709C5.36044 3.26915 5.28939 3.21115 5.20493 3.21115H3.39243C3.29238 3.21115 3.21118 3.29235 3.21118 3.3924V8.8299C3.21118 8.92995 3.29238 9.01115 3.39243 9.01115H5.20493C5.30498 9.01115 5.38618 8.92995 5.38618 8.8299V4.92215C5.67908 4.66985 6.05644 4.58938 6.36529 4.7206C6.66472 4.84712 6.83618 5.15597 6.83618 5.5674V8.8299C6.83618 8.92995 6.91738 9.01115 7.01743 9.01115H8.82993C8.92998 9.01115 9.01118 8.92995 9.01118 8.8299V5.20237C8.99052 3.71285 8.28981 3.16149 7.70509 2.96139Z" fill="white"/>
        </svg>
        <svg width="21" height="21" viewBox="0 0 21 21" fill="none" id="icon-facebook">
            <path d="M11.4292 18.131V11.301H13.7333L14.0758 8.62684H11.4292V6.9235C11.4292 6.15184 11.6442 5.6235 12.7517 5.6235H14.155V3.23934C13.4722 3.16616 12.7859 3.13083 12.0992 3.1335C10.0625 3.1335 8.66417 4.37684 8.66417 6.65934V8.62184H6.375V11.296H8.66917V18.131H11.4292Z" fill="white"/>
        </svg>
        <svg width="20" height="20" viewBox="0 0 20 20" fill="none" id="icon-instagram">
            <path d="M9.99933 6.14752C8.97736 6.14752 7.99725 6.5535 7.27461 7.27614C6.55197 7.99878 6.146 8.97889 6.146 10.0009C6.146 11.0228 6.55197 12.0029 7.27461 12.7256C7.99725 13.4482 8.97736 13.8542 9.99933 13.8542C11.0213 13.8542 12.0014 13.4482 12.724 12.7256C13.4467 12.0029 13.8527 11.0228 13.8527 10.0009C13.8527 8.97889 13.4467 7.99878 12.724 7.27614C12.0014 6.5535 11.0213 6.14752 9.99933 6.14752ZM9.99933 12.5034C9.3354 12.5034 8.69867 12.2396 8.22921 11.7701C7.75974 11.3007 7.496 10.6639 7.496 10C7.496 9.3361 7.75974 8.69936 8.22921 8.2299C8.69867 7.76043 9.3354 7.49669 9.99933 7.49669C10.6633 7.49669 11.3 7.76043 11.7695 8.2299C12.2389 8.69936 12.5027 9.3361 12.5027 10C12.5027 10.6639 12.2389 11.3007 11.7695 11.7701C11.3 12.2396 10.6633 12.5034 9.99933 12.5034Z" fill="white"/>
            <path d="M14.0048 6.90415C14.5009 6.90415 14.9031 6.50195 14.9031 6.00582C14.9031 5.50968 14.5009 5.10748 14.0048 5.10748C13.5086 5.10748 13.1064 5.50968 13.1064 6.00582C13.1064 6.50195 13.5086 6.90415 14.0048 6.90415Z" fill="white"/>
            <path d="M17.1106 5.09248C16.9177 4.5943 16.6229 4.14189 16.2451 3.7642C15.8672 3.38651 15.4147 3.09188 14.9165 2.89915C14.3334 2.68028 13.7174 2.56193 13.0948 2.54915C12.2923 2.51415 12.0381 2.50415 10.0031 2.50415C7.96813 2.50415 7.7073 2.50415 6.91146 2.54915C6.28929 2.56128 5.67376 2.67965 5.09146 2.89915C4.59308 3.09165 4.14044 3.38621 3.76258 3.76392C3.38472 4.14164 3.08999 4.59417 2.8973 5.09248C2.67839 5.67549 2.56031 6.29151 2.54813 6.91415C2.5123 7.71582 2.50146 7.96998 2.50146 10.0058C2.50146 12.0408 2.50146 12.3 2.54813 13.0975C2.56063 13.7208 2.67813 14.3358 2.8973 14.92C3.09053 15.4181 3.38554 15.8705 3.76349 16.2481C4.14144 16.6258 4.59402 16.9205 5.0923 17.1133C5.67349 17.341 6.28927 17.4678 6.91313 17.4883C7.71563 17.5233 7.9698 17.5342 10.0048 17.5342C12.0398 17.5342 12.3006 17.5342 13.0965 17.4883C13.719 17.4757 14.335 17.3576 14.9181 17.1392C15.4163 16.946 15.8687 16.6511 16.2464 16.2733C16.6242 15.8955 16.9191 15.4431 17.1123 14.945C17.3315 14.3617 17.449 13.7467 17.4615 13.1233C17.4973 12.3217 17.5081 12.0675 17.5081 10.0317C17.5081 7.99582 17.5081 7.73748 17.4615 6.93998C17.4518 6.30854 17.3331 5.68352 17.1106 5.09248ZM16.0956 13.0358C16.0903 13.5161 16.0026 13.9918 15.8365 14.4425C15.7113 14.7665 15.5197 15.0608 15.274 15.3064C15.0283 15.5519 14.7339 15.7434 14.4098 15.8683C13.9642 16.0337 13.4934 16.1214 13.0181 16.1275C12.2265 16.1642 12.0031 16.1733 9.97313 16.1733C7.94147 16.1733 7.73396 16.1733 6.9273 16.1275C6.45224 16.1217 5.98174 16.034 5.53646 15.8683C5.2112 15.7441 4.91563 15.5531 4.66887 15.3075C4.42211 15.0618 4.22966 14.7672 4.10396 14.4425C3.94017 13.9967 3.85256 13.5265 3.8448 13.0517C3.80896 12.26 3.80063 12.0367 3.80063 10.0067C3.80063 7.97582 3.80063 7.76832 3.8448 6.96082C3.85018 6.48084 3.93784 6.00533 4.10396 5.55498C4.35813 4.89748 4.87896 4.37998 5.53646 4.12832C5.98196 3.96343 6.45232 3.87579 6.9273 3.86915C7.7198 3.83332 7.9423 3.82332 9.97313 3.82332C12.004 3.82332 12.2123 3.82332 13.0181 3.86915C13.4935 3.87487 13.9643 3.96254 14.4098 4.12832C14.7339 4.25354 15.0282 4.44515 15.2739 4.69084C15.5196 4.93653 15.7112 5.23088 15.8365 5.55498C16.0003 6.00077 16.0879 6.47095 16.0956 6.94582C16.1315 7.73832 16.1406 7.96082 16.1406 9.99165C16.1406 12.0217 16.1406 12.24 16.1048 13.0367H16.0956V13.0358Z" fill="white"/>
        </svg>
        <svg width="11" height="9" viewBox="0 0 11 9" fill="none" id="icon-youtube">
            <path fill-rule="evenodd" clip-rule="evenodd" d="M9.19371 1.17666C9.63523 1.29352 9.98298 1.63603 10.1015 2.0701C10.3215 2.86236 10.3112 4.51418 10.3112 4.51418C10.3112 4.51418 10.3096 6.15688 10.0963 6.94864C9.97628 7.38221 9.62698 7.72421 9.18598 7.84057C8.37919 8.04799 5.15152 8.04445 5.15152 8.04445C5.15152 8.04445 1.93261 8.04091 1.11757 7.82337C0.675539 7.7065 0.327785 7.364 0.209291 6.93043C-0.00193719 6.14626 0.000122824 4.49495 0.000122824 4.49495C0.000122824 4.49495 0.00218435 2.85174 0.214958 2.05948C0.334483 1.62591 0.692025 1.27581 1.12479 1.15996C1.93209 0.952029 5.15925 0.95557 5.15925 0.95557C5.15925 0.95557 8.38692 0.959112 9.19371 1.17666ZM4.12928 2.98172L4.12671 6.01721L6.81188 4.50199L4.12928 2.98172Z" fill="white"/>
        </svg>

        <svg width="90" height="90" viewBox="0 0 90 90" fill="none" id="icon-goals">
            <path d="M39.7374 4.25743L38.0179 9.99212C40.3017 9.52595 42.6626 9.28337 45.0826 9.28337C46.9239 9.28337 48.7329 9.42751 50.4984 9.70103L48.8452 4.25708H39.7374V4.25743ZM45.0822 12.8431C27.5697 12.8431 13.4082 26.9988 13.4082 44.5112C13.4082 62.0232 27.5697 76.179 45.0822 76.179C62.5943 76.179 76.7501 62.0234 76.7501 44.511C76.7501 26.9984 62.5944 12.8428 45.0821 12.8428L45.0822 12.8431ZM45.0822 20.1709C58.5263 20.1709 69.4221 31.0667 69.4221 44.5113C69.4221 57.9554 58.5263 68.857 45.0821 68.857C31.6374 68.857 20.7363 57.9554 20.7363 44.5113C20.7363 31.0667 31.6374 20.1709 45.0821 20.1709H45.0822ZM45.0764 27.0155C35.4155 27.0155 27.5809 34.8448 27.5809 44.5057C27.5809 54.1666 35.4155 61.9959 45.0764 61.9959C54.7374 61.9959 62.5667 54.1666 62.5667 44.5057C62.5667 34.8448 54.7374 27.0155 45.0764 27.0155ZM45.0821 33.9917C50.892 33.9917 55.6012 38.7009 55.6012 44.5112C55.6012 50.3211 50.892 55.0304 45.0819 55.0304C39.2714 55.0304 34.5622 50.3213 34.5622 44.511C34.5622 38.7005 39.2714 33.9914 45.0817 33.9914L45.0821 33.9917ZM45.0821 39.4244C42.2708 39.4244 39.9897 41.7002 39.9897 44.5115C39.9897 47.3223 42.2708 49.6035 45.0821 49.6035C47.8928 49.6035 50.1685 47.3224 50.1685 44.5112C50.1685 41.7004 47.893 39.4246 45.0819 39.4246L45.0821 39.4244ZM20.1979 69.4336L15.3035 85.7593H23.5434L27.1082 74.8058C24.5858 73.3047 22.2637 71.4953 20.1979 69.4336ZM68.9224 70.4334C66.8162 72.3716 64.4709 74.0537 61.9403 75.4376L65.3241 85.7595H73.5695L68.9226 70.4334H68.9224ZM39.9132 79.3596V85.7593H49.07V79.5138C47.7604 79.6614 46.4306 79.7388 45.0821 79.7388C43.326 79.7388 41.5998 79.6087 39.9127 79.3598L39.9132 79.3596Z" fill="#88d707"/>
        </svg>
        <svg width="90" height="90" viewBox="0 0 90 90" fill="none" id="icon-values">
            <path d="M66.6057 10H45.8344L59.0513 27.5406L66.6057 10ZM22.5513 10L30.1057 27.5406L43.3226 10H22.5513ZM44.5785 16.6672L34.5312 30H54.6258L44.5785 16.6672ZM70.7878 12.9781L63.458 30H81L70.7878 12.9781ZM18.3691 12.9781L8 30H25.699L18.3691 12.9781ZM27.4164 35H8.15699L43.1342 80H43.2174L27.4164 35ZM61.7406 35L45.9396 80H46.0228L81 35H61.7406ZM56.0999 35H33.0571L44.5785 67.5L56.0999 35Z" fill="#88d707"/>
        </svg>
        <svg width="90" height="90" viewBox="0 0 90 90" fill="none" id="icon-mission">
            <g clip-path="url(#clip0_409_1734)">
                <path d="M65.0898 52.0543C76.4806 39.2563 81.2749 28.9271 83.0672 21.353C84.1041 16.9734 84.1238 13.5517 83.8572 11.157C83.7536 10.2177 83.5753 9.28816 83.3239 8.3772C83.2187 7.99121 83.0901 7.61197 82.9388 7.24157C82.5784 6.43182 82.1093 6.08126 81.2008 5.78007C80.9407 5.6951 80.6771 5.62097 80.4108 5.55789C79.485 5.33721 78.5444 5.18375 77.5965 5.0987C75.1771 4.88145 71.7208 4.95057 67.3264 6.02695C59.7424 7.87357 49.4626 12.658 36.9065 23.8217L25.0565 24.9968H25.0269C22.1793 25.3135 19.525 26.5919 17.5021 28.6209L5.74101 40.4018C5.3685 40.777 5.12297 41.2594 5.03896 41.7814C4.95495 42.3033 5.03669 42.8385 5.27268 43.3116C5.50868 43.7846 5.88704 44.1718 6.35455 44.4187C6.82207 44.6655 7.3552 44.7595 7.87895 44.6876L17.2404 43.3495C18.6229 43.152 20.1634 43.4137 21.9558 44.0013C23.1013 44.3765 24.1134 44.7913 25.1898 45.2258L26.1921 45.6356C27.1599 49.6646 29.4509 53.4368 32.4874 56.4734C35.5141 59.505 39.2814 61.8059 43.3055 62.7786L43.7104 63.776C44.1498 64.8523 44.5646 65.8694 44.9398 67.0199C45.5224 68.8122 45.7891 70.3576 45.5916 71.7401L44.2535 81.1214C44.1829 81.6441 44.2776 82.1759 44.5243 82.6421C44.771 83.1084 45.1573 83.4858 45.6292 83.7215C46.1012 83.9572 46.635 84.0393 47.1559 83.9565C47.6769 83.8736 48.1588 83.6298 48.5343 83.2593L60.2954 71.4784C62.3198 69.4541 63.5937 66.7928 63.9097 63.9438L65.0898 52.0543ZM65.6329 33.7905C61.6977 37.7405 56.1035 38.5354 53.1509 35.5779C50.1983 32.6154 50.9981 27.0212 54.9333 23.0761C58.8734 19.1311 64.4627 18.3361 67.4153 21.2937C70.3679 24.2513 69.573 29.8454 65.6378 33.7905H65.6329Z" fill="#88d707"/>
                <path d="M30.6996 58.2608C33.3203 60.9164 36.3224 63.1663 39.6068 64.9363C34.0867 69.9083 15.2699 74.9495 14.6527 74.3323C14.0306 73.7053 18.2917 53.6492 23.7328 48.7561C25.4412 52.163 27.8655 55.4217 30.6996 58.2608Z" fill="#88d707"/>
            </g>
            <defs>
                <clipPath id="clip0_409_1734">
                    <rect width="79" height="79" fill="white" transform="translate(5 5)"/>
                </clipPath>
            </defs>
        </svg>
        <svg width="90" height="90" viewBox="0 0 90 90" fill="none" id="icon-vision">
            <g clip-path="url(#clip0_409_1744)">
                <path d="M36.2363 63.75H53.76M45 11.25V15M68.865 21.135L66.2137 23.7862M78.75 45H75M15 45H11.25M23.7862 23.7862L21.135 21.135M31.74 58.26C29.1183 55.6376 27.333 52.2966 26.6099 48.6596C25.8868 45.0226 26.2584 41.2529 27.6777 37.827C29.097 34.4012 31.5003 31.4732 34.5836 29.4131C37.6669 27.353 41.2918 26.2535 45 26.2535C48.7082 26.2535 52.3331 27.353 55.4164 29.4131C58.4997 31.4732 60.903 34.4012 62.3223 37.827C63.7416 41.2529 64.1132 45.0226 63.3901 48.6596C62.667 52.2966 60.8817 55.6376 58.26 58.26L56.205 60.3113C55.0302 61.4863 54.0983 62.8813 53.4626 64.4165C52.8269 65.9517 52.4998 67.5971 52.5 69.2587V71.25C52.5 73.2391 51.7098 75.1468 50.3033 76.5533C48.8968 77.9598 46.9891 78.75 45 78.75C43.0109 78.75 41.1032 77.9598 39.6967 76.5533C38.2902 75.1468 37.5 73.2391 37.5 71.25V69.2587C37.5 65.9025 36.165 62.6813 33.795 60.3113L31.74 58.26Z" stroke="#88d707" stroke-width="7.5" stroke-linecap="round" stroke-linejoin="round"/>
            </g>
            <defs>
                <clipPath id="clip0_409_1744">
                    <rect width="90" height="90" fill="white"/>
                </clipPath>
            </defs>
        </svg>
        <svg width="16" height="16" viewBox="0 0 16 16" fill="none" id="icon-first">
            <path d="M11.727 12L12.667 11.06L9.61366 8L12.667 4.94L11.727 4L7.72699 8L11.727 12Z" fill="#333333"/>
            <path d="M7.33344 12L8.27344 11.06L5.2201 8L8.27344 4.94L7.33344 4L3.33344 8L7.33344 12Z" fill="#333333"/>
        </svg>
        <svg width="16" height="16" viewBox="0 0 16 16" fill="none" id="icon-previous">
            <path d="M10.06 12L11 11.06L7.94667 8L11 4.94L10.06 4L6.06 8L10.06 12Z" fill="black"/>
        </svg>
        <svg width="16" height="16" viewBox="0 0 16 16" fill="none" id="icon-next">
            <path d="M6.94 4L6 4.94L9.05333 8L6 11.06L6.94 12L10.94 8L6.94 4Z" fill="black"/>
        </svg>
        <svg width="16" height="16" viewBox="0 0 16 16" fill="none" id="icon-last">
            <path d="M4.27301 4L3.33301 4.94L6.38634 8L3.33301 11.06L4.27301 12L8.27301 8L4.27301 4Z" fill="black"/>
            <path d="M8.66656 4L7.72656 4.94L10.7799 8L7.72656 11.06L8.66656 12L12.6666 8L8.66656 4Z" fill="black"/>
        </svg>
        <svg width="62" height="80" viewBox="0 0 62 80" fill="none" id="icon-love">
            <path fill-rule="evenodd" clip-rule="evenodd" d="M30.615 12.2929L26.9565 8.54947C21.1907 2.65247 10.4092 4.6029 6.49557 12.2065C4.70971 15.6858 4.19436 20.8768 7.69976 27.7592C11.0215 34.3012 17.9608 42.2604 30.615 51.0068C43.264 42.2553 50.2033 34.2961 53.5301 27.7592C57.0355 20.8768 56.5253 15.6858 54.7343 12.2116C50.8207 4.6029 40.0392 2.65247 34.2734 8.54947L30.615 12.2929ZM28.1147 55.4664C-26.8899 17.6769 12.8073 -11.351 29.9465 4.35401C30.1778 4.56396 30.4024 4.78236 30.6201 5.00924C30.8412 4.78236 31.0657 4.56396 31.2936 4.35401C48.4379 -11.351 88.1198 17.6819 33.1152 55.4664L34.3142 57.8435C34.3893 57.9929 34.434 58.1556 34.4459 58.3222C34.4578 58.4888 34.4366 58.6561 34.3836 58.8146C34.3305 58.9731 34.2466 59.1196 34.1367 59.2458C34.0267 59.372 33.8929 59.4754 33.7428 59.5501C33.5927 59.6248 33.4293 59.6694 33.2619 59.6812C33.0945 59.6931 32.9264 59.672 32.7672 59.6191C32.608 59.5663 32.4608 59.4828 32.334 59.3733C32.2073 59.2639 32.1034 59.1307 32.0283 58.9812L31.9875 58.8949C32.0283 59.4536 32.0896 59.9209 32.1763 60.3679C32.4518 61.7393 32.9978 62.8465 34.3142 65.4623C35.7838 68.3982 35.5133 71.3035 34.702 73.7364C33.9009 76.1186 32.5488 78.1401 31.7018 79.3998L31.6814 79.4353C31.5882 79.5741 31.4686 79.6932 31.3292 79.7859C31.1898 79.8786 31.0334 79.9431 30.869 79.9756C30.7046 80.0081 30.5354 80.0081 30.3709 79.9756C30.2065 79.943 30.0502 79.8785 29.9108 79.7858C29.7714 79.6931 29.6518 79.574 29.5587 79.4352C29.4655 79.2965 29.4008 79.1408 29.3681 78.9771C29.3354 78.8135 29.3354 78.645 29.3681 78.4814C29.4008 78.3177 29.4656 78.1621 29.5587 78.0233C30.416 76.7433 31.5997 74.9758 32.2784 72.9288C32.957 70.9175 33.1101 68.7435 32.0283 66.6001L31.962 66.4579C30.7374 64.0198 30.0231 62.6078 29.6761 60.8606C29.5299 60.1064 29.4412 59.3424 29.4108 58.5749L29.2067 58.9812C29.1324 59.1316 29.029 59.2659 28.9024 59.3763C28.7757 59.4868 28.6284 59.5711 28.4688 59.6246C28.3093 59.6781 28.1407 59.6996 27.9727 59.6879C27.8048 59.6762 27.6409 59.6315 27.4903 59.5564C27.3398 59.4813 27.2058 59.3773 27.0958 59.2504C26.9859 59.1235 26.9023 58.9762 26.8498 58.817C26.7973 58.6577 26.777 58.4897 26.7901 58.3227C26.8031 58.1556 26.8493 57.9927 26.9259 57.8435L28.1249 55.4664H28.1147ZM20.4763 10.4643C17.1648 9.55008 12.9094 10.8859 11.0368 14.5176C10.3683 15.828 9.78667 18.0172 10.6286 21.2984C10.95 22.5377 12.741 22.304 13.1135 21.08C14.185 17.5397 16.3127 13.7303 20.0477 12.4859C21.155 12.1151 21.5989 10.7742 20.4763 10.4643Z" fill="#DFA100"/>
        </svg>
        <svg width="25" height="19" viewBox="0 0 25 19" fill="none" id="icon-hamburger">
            <path fill-rule="evenodd" clip-rule="evenodd" d="M1.58333 0.791748C0.84696 0.791748 0.25 1.36739 0.25 2.07746C0.25 2.78754 0.84696 3.36318 1.58333 3.36318H22.9167C23.6531 3.36318 24.25 2.78754 24.25 2.07746C24.25 1.36739 23.6531 0.791748 22.9167 0.791748H1.58333ZM5.58333 9.79175C5.58333 9.08165 6.18029 8.50603 6.91667 8.50603H22.9167C23.6531 8.50603 24.25 9.08165 24.25 9.79175C24.25 10.5018 23.6531 11.0775 22.9167 11.0775H6.91667C6.18029 11.0775 5.58333 10.5018 5.58333 9.79175ZM0.25 17.506C0.25 16.7959 0.846933 16.2203 1.58333 16.2203H22.9167C23.6531 16.2203 24.25 16.7959 24.25 17.506C24.25 18.2161 23.6531 18.7917 22.9167 18.7917H1.58333C0.846933 18.7917 0.25 18.2161 0.25 17.506Z" fill="#ffffff"/>
        </svg>
        <svg width="21" height="21" viewBox="0 0 21 21" fill="none" id="icon-search">
            <path d="M16.6451 14.8549C16.2353 14.4623 15.8365 14.0585 15.449 13.6439C15.1235 13.3131 14.9275 13.0725 14.9275 13.0725L12.4775 11.9026C13.4584 10.7902 13.9997 9.35812 14 7.875C14 4.49837 11.2525 1.75 7.875 1.75C4.4975 1.75 1.75 4.49837 1.75 7.875C1.75 11.2516 4.4975 14 7.875 14C9.41762 14 10.8237 13.4225 11.9026 12.4784L13.0725 14.9284C13.0725 14.9284 13.3131 15.1244 13.6439 15.4499C13.9825 15.7675 14.4279 16.1971 14.8549 16.646L16.0431 17.864L16.5716 18.4293L18.4275 16.5734L17.8622 16.0449C17.5306 15.7194 17.0879 15.2871 16.6451 14.8549ZM7.875 12.25C5.46262 12.25 3.5 10.2874 3.5 7.875C3.5 5.46263 5.46262 3.5 7.875 3.5C10.2874 3.5 12.25 5.46263 12.25 7.875C12.25 10.2874 10.2874 12.25 7.875 12.25Z" fill="white"/>
        </svg>
    </defs>
</svg>
